<?xml version="1.0" standalone="no"?>
<!DOCTYPE svg PUBLIC "-//W3C//DTD SVG 20010904//EN"
 "http://www.w3.org/TR/2001/REC-SVG-20010904/DTD/svg10.dtd">
<svg version="1.0" xmlns="http://www.w3.org/2000/svg"
 width="1024.000000pt" height="576.000000pt" viewBox="0 0 1024.000000 576.000000"
 preserveAspectRatio="xMidYMid meet">
<metadata>
Created by potrace 1.16, written by Peter Selinger 2001-2019
</metadata>
<g transform="translate(0.000000,576.000000) scale(0.100000,-0.100000)"
fill="#f5f5f5" stroke="none">
<path fill="#000000" d="M7260 5030 c-193 -41 -366 -126 -478 -234 -136 -131 -212 -254 -277
-449 -45 -135 -58 -245 -53 -441 3 -137 7 -168 25 -208 14 -30 28 -48 39 -48
12 0 15 5 9 23 -19 62 -27 128 -21 187 5 62 57 313 63 307 1 -2 -2 -43 -7 -93
-6 -49 -14 -246 -20 -439 -5 -192 -12 -363 -15 -378 -9 -44 15 -29 52 32 l32
53 11 -44 c29 -116 103 -243 147 -254 34 -9 40 4 48 105 3 47 7 92 8 99 1 7
19 -21 40 -63 21 -41 42 -75 47 -75 8 0 27 55 45 132 6 24 10 26 27 17 11 -6
71 -22 132 -34 61 -13 109 -24 106 -25 -3 -1 -21 -2 -41 -4 -20 -2 -52 -12
-71 -24 -39 -24 -103 -126 -120 -189 -5 -24 -14 -43 -19 -43 -5 0 -9 -8 -9
-17 0 -9 -13 -51 -29 -92 -46 -121 -131 -388 -131 -414 0 -32 43 -71 128 -116
l72 -37 -24 -45 c-50 -91 -86 -170 -86 -187 0 -6 -16 -27 -35 -48 -48 -50 -45
-69 15 -106 27 -17 47 -35 44 -39 -3 -5 8 -17 25 -27 25 -14 32 -27 41 -72 6
-30 22 -95 35 -145 22 -82 46 -218 75 -415 6 -41 13 -89 16 -106 4 -27 1 -33
-19 -38 -19 -4 -28 -18 -40 -58 -8 -29 -21 -67 -28 -83 -11 -28 -9 -38 20 -95
36 -76 40 -119 11 -145 -28 -25 -22 -63 12 -88 38 -28 169 -27 227 2 22 12 50
21 61 21 11 0 36 6 54 14 l33 14 7 98 c5 78 11 103 26 119 11 12 20 31 20 44
0 31 -37 101 -58 108 -9 3 -24 15 -33 26 -15 18 -15 26 -2 81 29 121 33 175
18 260 -8 46 -15 146 -15 232 l0 152 28 5 c15 3 38 9 52 12 25 6 26 6 38 -87
7 -51 19 -167 27 -258 8 -91 21 -208 29 -260 20 -130 23 -170 14 -170 -4 0
-13 -19 -19 -42 -7 -24 -17 -49 -22 -56 -6 -7 -12 -46 -15 -87 -5 -77 -3 -81
36 -76 15 2 15 -8 1 -65 -14 -53 -3 -81 41 -107 63 -38 219 -8 239 45 5 13 7
26 5 29 -2 4 7 10 20 13 21 5 25 13 29 63 2 32 10 78 17 102 11 37 11 51 -4
96 -9 30 -25 64 -35 76 -17 21 -17 26 7 133 25 109 27 160 19 376 -2 48 30
296 41 318 4 7 36 25 72 39 36 14 75 33 88 41 27 18 29 53 2 77 -11 10 -20 24
-20 30 0 20 -97 205 -120 230 -30 32 -25 52 18 66 73 24 179 77 185 92 10 25
-26 212 -70 372 -76 275 -138 430 -181 451 -13 7 -19 13 -14 15 6 2 26 28 45
57 l34 52 6 -116 c3 -64 10 -121 17 -128 15 -15 47 27 107 141 26 51 50 93 53
93 3 0 14 -32 25 -70 11 -38 25 -70 31 -70 13 0 31 73 36 145 l3 40 13 -45 c8
-25 18 -62 23 -82 5 -21 15 -38 22 -38 25 0 110 231 122 335 4 33 10 64 12 68
5 8 45 -53 78 -114 11 -21 35 -26 35 -6 0 6 -9 84 -20 172 -11 88 -29 243 -40
345 -38 333 -66 454 -138 600 -111 225 -373 402 -660 445 -134 21 -345 18
-452 -5z m563 -44 c106 -32 240 -98 324 -159 73 -54 172 -175 213 -261 65
-137 97 -305 135 -711 9 -93 20 -197 25 -229 5 -33 8 -61 6 -63 -4 -5 -53 106
-61 140 -11 44 -25 31 -25 -25 0 -115 -90 -441 -114 -417 -3 3 -16 58 -28 122
-19 94 -22 133 -16 199 10 128 9 451 -2 594 -11 133 -46 354 -62 389 -6 15 -7
11 -3 -15 39 -246 55 -436 55 -670 0 -228 -31 -610 -50 -610 -8 0 -30 108 -30
144 0 9 -4 14 -10 11 -5 -3 -10 -15 -10 -25 0 -24 -106 -235 -127 -252 -15
-12 -16 1 -10 137 17 400 17 459 -2 225 l-8 -105 -1 155 c-2 146 0 160 28 249
29 93 61 237 59 270 0 9 -9 -18 -18 -59 -27 -113 -59 -214 -104 -330 -40 -101
-42 -103 -49 -70 -4 19 -11 188 -15 375 -7 291 -9 323 -14 219 -6 -105 -33
-302 -43 -311 -2 -2 -17 49 -33 114 -103 402 -126 489 -134 497 -5 6 -9 -4 -9
-25 0 -35 -29 -179 -65 -321 l-17 -68 -41 0 -40 0 5 103 5 102 -29 -92 c-16
-51 -33 -93 -38 -93 -5 0 -7 -6 -4 -13 11 -29 -135 -382 -202 -488 l-26 -41
-50 48 c-60 59 -130 163 -151 224 -21 60 -20 32 2 -152 10 -82 14 -148 11
-148 -23 0 -133 101 -159 145 -9 16 -11 3 -9 -68 2 -48 3 -87 2 -87 -9 0 -73
114 -68 122 4 7 3 8 -4 4 -23 -14 -102 172 -151 354 -15 57 -12 5 5 -76 18
-90 67 -204 134 -317 l50 -82 0 -94 0 -94 38 -36 37 -36 -10 -55 -11 -55 -26
50 c-14 28 -31 69 -38 93 -7 23 -16 42 -20 42 -4 0 -13 -34 -19 -75 -7 -41
-13 -75 -15 -75 -1 0 -1 73 0 163 2 142 1 151 -6 77 -5 -47 -9 -147 -8 -223 0
-76 -2 -140 -5 -143 -10 -10 -57 70 -88 151 -19 49 -33 106 -36 151 l-6 71
-35 -69 c-19 -37 -37 -66 -39 -64 -2 2 0 78 5 167 5 90 10 241 11 334 3 260
31 486 76 615 8 23 15 45 15 49 -1 16 -25 -39 -56 -127 -18 -53 -49 -141 -68
-194 -19 -53 -42 -132 -51 -175 -9 -42 -19 -80 -22 -83 -9 -8 7 179 23 270 71
393 276 659 596 772 160 56 243 68 453 64 170 -3 199 -6 278 -30z m-33 -856
c76 -295 70 -277 81 -257 5 8 15 42 23 74 l14 58 1 -92 1 -92 -52 -24 c-104
-49 -131 -57 -193 -57 -102 0 -153 -10 -151 -29 2 -13 17 -17 69 -19 54 -2 67
-6 67 -19 0 -15 2 -15 18 0 9 8 35 20 58 26 22 6 72 31 110 55 l69 45 7 -42
c3 -23 7 -67 7 -98 1 -31 4 -71 8 -89 l6 -33 33 64 33 64 1 -100 0 -100 -52
-41 c-182 -140 -362 -205 -573 -205 -130 0 -194 9 -295 42 -86 29 -129 51
-168 87 -30 28 -32 35 -32 96 0 51 3 66 14 66 12 0 14 13 9 73 l-6 72 55 -51
c44 -42 105 -84 120 -84 4 0 -9 158 -17 215 l-7 40 38 -55 c41 -60 137 -160
153 -160 26 0 154 255 216 433 21 59 43 106 48 104 14 -4 8 -213 -9 -294 -3
-15 0 -23 10 -23 7 0 16 12 19 28 3 15 25 83 50 152 l45 125 38 6 39 6 -36 2
-36 1 23 91 c13 50 32 132 41 183 l17 91 13 -50 c7 -27 40 -156 73 -285z m126
-969 c23 -14 37 -37 62 -102 29 -76 31 -85 16 -94 -9 -5 -42 -27 -73 -47 l-56
-37 -14 46 c-7 25 -21 55 -31 66 -10 10 -24 41 -30 67 -23 97 44 151 126 101z
m-698 -34 c4 -42 -35 -136 -56 -137 -7 0 -17 10 -22 23 -8 18 -9 17 -4 -10 4
-24 0 -41 -16 -62 -11 -17 -27 -46 -35 -65 l-15 -36 -37 40 c-35 40 -36 41
-23 83 27 93 53 138 99 173 33 26 53 34 76 32 27 -3 30 -7 33 -41z m254 -695
c10 -4 38 -35 62 -69 47 -64 48 -64 156 -92 34 -8 5 -9 -142 -2 -19 1 -35 14
-63 52 -20 28 -40 61 -45 75 -8 21 -16 24 -62 25 -49 2 -50 2 -18 9 46 10 91
10 112 2z m-13 -162 c15 7 29 4 60 -13 39 -22 40 -25 24 -39 -10 -9 -44 -30
-76 -48 -53 -29 -60 -31 -88 -20 -18 8 -37 27 -46 46 -15 31 -15 32 18 62 32
28 35 29 61 16 20 -11 33 -12 47 -4z m-229 -451 c112 -29 140 -47 140 -86 0
-34 4 -32 -100 -48 -27 -3 -186 11 -225 21 -24 6 -27 11 -39 65 -5 25 -2 28
38 38 24 6 49 18 56 26 9 11 21 14 34 10 12 -4 55 -15 96 -26z m515 -5 c38
-16 109 -12 121 7 3 5 17 9 31 9 23 0 25 -3 19 -32 -4 -18 -11 -67 -16 -108
-17 -132 -20 -139 -49 -148 -32 -9 -267 -9 -276 -1 -6 7 -47 241 -42 244 1 1
40 11 87 22 47 12 86 21 86 22 1 0 18 -6 39 -15z m-623 -174 c39 -8 98 -9 156
-5 88 7 94 6 90 -11 -2 -11 -16 -25 -31 -32 -41 -20 -163 -26 -229 -13 -50 11
-58 16 -67 43 -14 40 -14 41 3 35 8 -3 43 -11 78 -17z"/>
<path d="M6106 3351 c-3 -4 -18 -11 -33 -14 -16 -3 -47 -19 -70 -36 -36 -26
-43 -37 -43 -65 0 -54 49 -62 132 -20 53 27 148 112 148 133 0 13 -126 15
-134 2z"/>
<path d="M6197 3100 c-80 -57 -107 -118 -73 -162 20 -27 53 -22 92 15 42 37
87 125 82 159 -5 37 -38 33 -101 -12z"/>
<path d="M1300 2735 l0 -275 200 0 200 0 0 55 0 55 -135 0 -135 0 0 55 0 55
110 0 110 0 0 60 0 60 -110 0 -110 0 0 50 0 50 125 0 125 0 0 55 0 55 -190 0
-190 0 0 -275z"/>
<path d="M1918 2846 c-16 -8 -28 -11 -28 -5 0 5 -27 9 -60 9 l-60 0 0 -195 0
-195 65 0 65 0 0 123 c0 119 1 124 25 147 19 17 36 23 70 23 l46 0 -7 46 c-4
25 -8 49 -11 54 -7 12 -76 8 -105 -7z"/>
<path d="M2228 2846 c-16 -8 -28 -11 -28 -5 0 5 -27 9 -60 9 l-60 0 0 -195 0
-195 65 0 65 0 0 123 c0 119 1 124 25 147 19 17 36 23 70 23 l46 0 -7 46 c-4
25 -8 49 -11 54 -7 12 -76 8 -105 -7z"/>
<path d="M2495 2842 c-56 -26 -91 -72 -105 -135 -21 -104 25 -209 107 -243 18
-8 61 -14 95 -14 144 1 217 81 205 226 -9 118 -69 174 -191 181 -55 3 -80 -1
-111 -15z m150 -113 c15 -15 20 -33 20 -75 0 -49 -4 -59 -28 -80 -53 -46 -105
-19 -114 59 -12 104 57 158 122 96z"/>
<path d="M3008 2846 c-16 -8 -28 -11 -28 -5 0 5 -27 9 -60 9 l-60 0 0 -195 0
-195 65 0 65 0 0 123 c0 119 1 124 25 147 19 17 36 23 70 23 l46 0 -7 46 c-4
25 -8 49 -11 54 -7 12 -76 8 -105 -7z"/>
</g>
</svg>
